# Blender v3.1.2 OBJ File: 'CarGuns.blend'
# www.blender.org
mtllib CarGun1.mtl
o Cube
v 0.477830 0.482389 -1.318193
v 0.507489 0.524125 -1.275903
v 0.520569 0.481612 -1.274427
v 0.393783 -0.524125 -1.062372
v 0.397131 -0.482389 -1.113873
v 0.440000 -0.481612 -1.070436
v 0.520569 0.481612 1.274427
v 0.507489 0.524125 1.275903
v 0.477830 0.482389 1.318193
v 0.440000 -0.481612 1.070436
v 0.397131 -0.482389 1.113873
v 0.393783 -0.524125 1.062372
v -0.477830 0.482389 -1.318193
v -0.520569 0.481612 -1.274427
v -0.507489 0.524125 -1.275903
v -0.440000 -0.481612 -1.070436
v -0.397131 -0.482389 -1.113873
v -0.393783 -0.524125 -1.062372
v -0.520569 0.481612 1.274427
v -0.477830 0.482389 1.318193
v -0.507489 0.524125 1.275903
v -0.393783 -0.524125 1.062372
v -0.397131 -0.482389 1.113873
v -0.440000 -0.481612 1.070436
v 0.247243 0.566584 0.582896
v 0.299992 0.524125 0.638171
v 0.290433 0.566195 0.540076
v -0.247054 0.566584 0.582896
v -0.290215 0.566231 0.540072
v -0.299992 0.524125 0.638171
v 0.290433 0.566195 -0.566093
v 0.299992 0.524125 -0.638171
v 0.245971 0.557705 -0.613354
v -0.290215 0.566231 -0.566104
v -0.245816 0.557705 -0.613354
v -0.299992 0.524125 -0.638171
v 0.262113 0.654991 0.574265
v 0.305434 0.655380 0.531369
v 0.291385 0.697451 0.507173
v -0.290465 0.697451 0.507173
v -0.304731 0.655344 0.531372
v -0.261455 0.654991 0.574265
v 0.305434 0.655380 -0.635975
v 0.263828 0.663870 -0.696541
v 0.289829 0.697451 -0.696459
v -0.288909 0.697451 -0.696459
v -0.263109 0.663870 -0.696541
v -0.304731 0.655344 -0.635929
v 0.165531 0.871452 0.084770
v 0.160688 0.718854 0.119789
v -0.164140 0.871643 0.084778
v -0.159678 0.700606 0.120529
v 0.165531 0.871452 -0.511061
v 0.201240 0.700606 -0.593368
v 0.122588 0.869532 -0.554353
v -0.164140 0.871643 -0.511068
v -0.121243 0.869532 -0.554353
v -0.200320 0.700606 -0.593368
v 0.153950 2.020848 0.194470
v 0.195913 2.024591 0.150912
v 0.157753 2.195437 0.161823
v -0.152672 2.195437 0.161823
v -0.191303 2.024400 0.150899
v -0.149357 2.020854 0.194470
v 0.195913 2.024591 -0.564157
v 0.153071 2.026512 -0.607627
v 0.157753 2.195437 -0.572743
v -0.191303 2.024400 -0.564147
v -0.152672 2.195437 -0.572743
v -0.148506 2.026512 -0.607627
v 0.030212 1.113629 0.185095
v 0.109737 0.940918 0.132527
v 0.077375 1.284474 0.196005
v -0.028143 1.113629 0.185095
v -0.074834 1.284665 0.196018
v -0.108148 0.940921 0.132527
v 0.047833 1.782415 0.223455
v 0.085993 1.611569 0.214767
v 0.136459 1.955125 0.190700
v -0.043902 1.782415 0.223455
v -0.132046 1.955122 0.190700
v -0.082533 1.611379 0.214758
v 0.113780 1.175551 6.300875
v 0.298175 1.314760 6.300875
v 0.130542 1.315542 6.343536
v -0.114373 1.175551 6.300875
v -0.129451 1.315542 6.343536
v -0.296926 1.314915 6.300875
v 0.182673 1.720492 6.300875
v 0.164039 1.580502 6.343536
v 0.331870 1.581284 6.300875
v -0.175987 1.720492 6.300875
v -0.327026 1.581128 6.300875
v -0.159410 1.580502 6.343536
vt 0.625000 0.750000
vt 0.625000 0.500000
vt 0.625000 0.500000
vt 0.625000 0.750000
vt 0.625000 1.000000
vt 0.625000 1.000000
vt 0.625000 0.250000
vt 0.625000 0.000000
vt 0.625000 0.000000
vt 0.625000 0.250000
vt 0.384954 0.761837
vt 0.615046 0.760514
vt 0.615046 0.989486
vt 0.384954 0.988163
vt 0.385139 0.504666
vt 0.614861 0.504253
vt 0.614861 0.745747
vt 0.385139 0.745334
vt 0.625000 1.000000
vt 0.625000 0.750000
vt 0.625000 0.750446
vt 0.625000 0.999343
vt 0.385139 0.004666
vt 0.614861 0.004253
vt 0.614861 0.245747
vt 0.385139 0.245334
vt 0.625000 0.981645
vt 0.625000 0.768367
vt 0.625000 0.767817
vt 0.625000 0.982195
vt 0.137218 0.504826
vt 0.362782 0.504826
vt 0.362782 0.745174
vt 0.137218 0.745174
vt 0.625000 0.250000
vt 0.625000 0.000000
vt 0.625000 -0.000591
vt 0.625000 0.250000
vt 0.625000 0.239171
vt 0.625000 0.008860
vt 0.625000 0.008613
vt 0.625000 0.239433
vt 0.625000 0.481650
vt 0.625000 0.268343
vt 0.625000 0.267690
vt 0.625000 0.482303
vt 0.625000 0.741140
vt 0.625000 0.510826
vt 0.625000 0.510564
vt 0.625000 0.741387
vt 0.625000 0.000000
vt 0.625000 0.000000
vt 0.625000 0.000000
vt 0.625000 0.000000
vt 0.625000 0.500000
vt 0.625000 0.500000
vt 0.625000 0.999923
vt 0.625000 0.746673
vt 0.625000 0.750000
vt 0.625000 1.000000
vt 0.625000 0.925769
vt 0.625000 0.824231
vt 0.625000 0.824231
vt 0.625000 0.925769
vt 0.651950 0.513008
vt 0.848050 0.513008
vt 0.848050 0.736992
vt 0.651950 0.736992
vt 0.625000 0.750000
vt 0.875000 0.750000
vt 0.875000 0.750000
vt 0.625000 0.750000
vt 0.625000 0.750000
vt 0.625000 0.000000
vt 0.625000 0.000000
vt 0.625000 0.000000
vt 0.625000 0.000000
vt 0.625000 0.734644
vt 0.625000 0.515268
vt 0.625000 0.513842
vt 0.625000 0.736073
vt 0.625000 0.234732
vt 0.625000 0.015356
vt 0.625000 0.013928
vt 0.625000 0.236158
vt 0.625000 0.468205
vt 0.625000 0.281780
vt 0.625000 0.278178
vt 0.625000 0.471808
vt 0.625000 0.930219
vt 0.625000 0.819811
vt 0.625000 0.814051
vt 0.625000 0.935977
vt 0.685237 0.750000
vt 0.814763 0.750000
vt 0.814763 0.750000
vt 0.685237 0.750000
vt 0.625000 0.750000
vt 0.625000 0.750000
vt 0.625000 0.750000
vt 0.625000 0.750000
vt 0.615046 0.489486
vt 0.372938 0.487834
vt 0.384142 0.500000
vt 0.383045 0.500000
vt 0.383031 0.749800
vt 0.384142 0.750000
vt 0.375000 0.762218
vt 0.615046 0.260514
vt 0.384142 0.250000
vt 0.375000 0.245174
vt 0.614235 0.000000
vt 0.625000 0.004816
vt 0.136259 0.750000
vt 0.125000 0.746086
vt 0.625000 0.000137
vt 0.625000 0.010001
vt 0.625000 0.012282
vt 0.625000 0.007492
vt 0.625000 0.000000
vt 0.625000 0.012812
vt 0.625000 0.016339
vt 0.625000 0.500555
vt 0.625000 0.500000
vt 0.625000 0.473050
vt 0.625000 0.236992
vt 0.625000 0.250000
vt 0.625000 1.000000
vt 0.875000 0.750000
vt 0.625000 0.932480
vt 0.625000 1.000000
vt 0.625000 0.810237
vt 0.625000 0.750000
vt 0.625000 0.000000
vt 0.625000 0.000000
vt 0.125000 0.503914
vt 0.136259 0.500000
vt 0.363741 0.500000
vt 0.384954 0.488163
vt 0.384142 0.000000
vt 0.384954 0.261837
vt 0.363741 0.750000
vt 0.625000 0.000000
vt 0.625000 0.013008
vt 0.625000 0.276950
vt 0.625000 0.939763
vt 0.625000 0.000000
vt 0.625000 0.000000
vn 0.0000 1.0000 0.0000
vn 0.0000 -0.2072 0.9783
vn 0.9965 -0.0834 0.0000
vn -0.0202 0.9993 0.0317
vn -0.9965 -0.0834 -0.0000
vn -0.0000 0.0972 0.9953
vn 0.0000 -1.0000 0.0000
vn -0.0280 0.9996 0.0006
vn -0.9870 -0.1608 0.0000
vn 0.0000 -0.6168 -0.7871
vn 0.9861 -0.1659 0.0000
vn 0.0236 -0.0564 0.9981
vn 0.0000 0.9995 -0.0306
vn 0.1203 0.9927 -0.0070
vn 0.0032 -0.0534 0.9986
vn 0.0000 -0.9999 0.0101
vn 0.0000 -0.0573 0.9984
vn -0.9973 -0.0624 -0.0382
vn 0.9997 -0.0263 0.0000
vn -0.9997 -0.0236 -0.0000
vn 0.0000 -0.0460 -0.9989
vn 0.0000 0.0000 1.0000
vn 0.0000 0.9999 0.0102
vn 0.9968 -0.0698 -0.0382
vn 0.7037 0.1928 -0.6838
vn 0.5313 -0.6748 -0.5123
vn 0.7037 0.1928 0.6838
vn 0.5313 -0.6748 0.5123
vn -0.7037 0.1928 -0.6838
vn -0.5313 -0.6748 -0.5123
vn -0.7037 0.1928 0.6838
vn -0.5313 -0.6748 0.5123
vn 0.3461 0.8740 0.3411
vn -0.3454 0.8744 0.3409
vn 0.3151 0.8372 -0.4469
vn -0.3145 0.8376 -0.4467
vn 0.5890 0.5416 0.5998
vn -0.5887 0.5434 0.5984
vn 0.6698 -0.5173 -0.5326
vn -0.6714 -0.5145 -0.5334
vn 0.6275 0.4405 -0.6420
vn -0.6264 0.4416 -0.6423
vn 0.7105 0.1144 0.6943
vn -0.7108 0.1162 0.6937
vn 0.7095 0.1236 -0.6938
vn -0.7101 0.1256 -0.6928
vn 0.3071 -0.1449 0.9406
vn -0.3073 -0.1440 0.9407
vn 0.3104 0.0210 0.9504
vn -0.3104 0.0218 0.9503
vn 0.2332 -0.3089 0.9221
vn -0.2339 -0.3064 0.9227
vn 0.2372 0.2542 0.9376
vn -0.2374 0.2573 0.9367
vn -0.6770 -0.7360 0.0000
vn 0.0000 -0.7769 -0.6296
vn 0.6986 -0.2037 -0.6859
vn -0.6986 -0.2037 0.6859
vn 0.6986 -0.2037 0.6859
vn -0.6986 -0.2037 -0.6859
vn 0.0000 0.7118 0.7024
vn 0.9558 0.2941 0.0000
vn 0.0000 -0.7769 0.6296
vn -0.9558 0.2941 -0.0000
vn 0.0000 0.7118 -0.7024
vn 0.6770 -0.7360 0.0000
vn 0.0000 0.7930 0.6092
vn 0.9751 0.2216 0.0000
vn -0.9741 0.2262 0.0000
vn 0.0000 0.5943 -0.8042
vn -0.0000 0.8450 0.5348
vn 0.9433 0.3318 -0.0006
vn -0.9419 0.3359 -0.0006
vn 0.0000 0.0024 -1.0000
vn -0.6657 -0.5244 -0.5309
vn 0.6642 -0.5271 -0.5301
vn 0.7030 -0.0490 0.7095
vn -0.7034 -0.0453 0.7093
vn 0.9954 0.0907 0.0296
vn -0.9956 0.0881 0.0309
vn 0.0000 0.2250 -0.9744
vn 0.0000 0.1838 0.9830
vn 0.9760 0.2180 0.0000
vn -0.9754 0.2203 -0.0000
vn 0.0000 0.2022 -0.9793
vn -0.8915 -0.0317 0.4519
vn -0.7106 -0.0491 -0.7019
vn 0.8876 -0.0349 0.4593
vn 0.7102 -0.0510 -0.7022
vn -0.0000 -0.2912 0.9567
vn -0.0000 0.1863 0.9825
vn -0.7253 -0.0564 0.6861
vn 0.7252 -0.0585 0.6861
vn 0.0000 -0.2915 0.9566
vn 0.0000 0.2915 0.9566
vn -0.2467 -0.0279 0.9687
vn 0.2464 -0.0311 0.9687
vn 0.8554 0.5175 -0.0228
vn 0.8014 -0.5980 -0.0154
vn -0.8528 0.5217 -0.0224
vn -0.8046 -0.5937 -0.0158
vn 0.0000 -0.2072 -0.9783
usemtl Material
s off
f 8/1/1 2/2/1 32/3/1 26/4/1
f 21/5/1 8/1/1 26/4/1 30/6/1
f 15/7/1 21/8/1 30/9/1 36/10/1
f 11/11/2 9/12/2 20/13/2 23/14/2
f 2/2/1 15/7/1 36/10/1 32/3/1
f 6/15/3 3/16/3 7/17/3 10/18/3
f 40/19/4 39/20/4 50/21/4 52/22/4
f 24/23/5 19/24/5 14/25/5 16/26/5
f 28/27/6 25/28/6 37/29/6 42/30/6
f 18/31/7 4/32/7 12/33/7 22/34/7
f 46/35/8 40/36/8 52/37/8 58/38/8
f 34/39/9 29/40/9 41/41/9 48/42/9
f 33/43/10 35/44/10 47/45/10 44/46/10
f 27/47/11 31/48/11 43/49/11 38/50/11
f 64/51/12 52/52/12 76/53/12 81/54/12
f 45/55/13 46/35/13 58/38/13 54/56/13
f 39/20/14 45/55/14 54/56/14 50/21/14
f 52/57/15 50/58/15 72/59/15 76/60/15
f 74/61/16 71/62/16 83/63/16 86/64/16
f 67/65/1 69/66/1 62/67/1 61/68/1
f 59/69/17 64/70/17 81/71/17 79/72/17
f 50/73/17 59/69/17 79/72/17 72/59/17
f 82/74/18 75/75/18 88/76/18 93/77/18
f 49/78/19 53/79/19 65/80/19 60/81/19
f 56/82/20 51/83/20 63/84/20 68/85/20
f 55/86/21 57/87/21 70/88/21 66/89/21
f 87/90/22 85/91/22 90/92/22 94/93/22
f 77/94/23 80/95/23 92/96/23 89/97/23
f 73/98/24 78/99/24 91/100/24 84/101/24
f 1/102/25 2/2/25 3/16/25
f 4/103/26 5/104/26 6/105/26
f 7/17/27 8/1/27 9/12/27
f 10/106/28 11/107/28 12/108/28
f 13/109/29 14/25/29 15/7/29
f 16/26/30 17/110/30 18/111/30
f 19/24/31 20/112/31 21/113/31
f 22/34/32 23/114/32 24/115/32
f 25/28/33 26/4/33 27/47/33
f 28/116/34 29/117/34 30/9/34
f 31/48/35 32/3/35 33/43/35
f 34/39/36 35/44/36 36/10/36
f 37/29/37 38/50/37 39/20/37
f 40/118/38 41/119/38 42/120/38
f 43/49/39 44/46/39 45/55/39
f 46/35/40 47/45/40 48/42/40
f 53/79/41 54/56/41 55/86/41
f 56/82/42 57/87/42 58/38/42
f 59/69/43 60/81/43 61/68/43
f 62/121/44 63/122/44 64/51/44
f 65/123/45 66/124/45 67/125/45
f 68/85/46 69/126/46 70/127/46
f 71/62/47 72/59/47 73/98/47
f 74/61/48 75/128/48 76/60/48
f 77/94/49 78/99/49 79/72/49
f 80/95/50 81/71/50 82/129/50
f 83/63/51 84/101/51 85/91/51
f 86/64/52 87/130/52 88/131/52
f 89/132/53 90/133/53 91/100/53
f 92/134/54 93/77/54 94/135/54
f 18/31/55 22/34/55 24/115/55 16/136/55
f 4/32/56 18/31/56 17/137/56 5/138/56
f 3/16/57 6/15/57 5/139/57 1/102/57
f 23/140/58 20/112/58 19/24/58 24/23/58
f 9/12/59 11/11/59 10/18/59 7/17/59
f 13/109/60 17/141/60 16/26/60 14/25/60
f 8/1/61 21/5/61 20/13/61 9/12/61
f 2/2/62 8/1/62 7/17/62 3/16/62
f 22/34/63 12/33/63 11/142/63 23/114/63
f 21/8/64 15/7/64 14/25/64 19/24/64
f 15/7/65 2/2/65 1/102/65 13/109/65
f 12/33/66 4/32/66 6/15/66 10/18/66
f 25/28/67 28/27/67 30/6/67 26/4/67
f 31/48/68 27/47/68 26/4/68 32/3/68
f 29/40/69 34/39/69 36/10/69 30/9/69
f 35/44/70 33/43/70 32/3/70 36/10/70
f 39/20/71 40/19/71 42/30/71 37/29/71
f 45/55/72 39/20/72 38/50/72 43/49/72
f 40/36/73 46/35/73 48/42/73 41/41/73
f 46/35/74 45/55/74 44/46/74 47/45/74
f 34/39/75 48/42/75 47/45/75 35/44/75
f 43/49/76 31/48/76 33/43/76 44/46/76
f 37/29/77 25/28/77 27/47/77 38/50/77
f 28/143/78 42/120/78 41/41/78 29/40/78
f 53/79/79 49/78/79 50/21/79 54/56/79
f 51/83/80 56/82/80 58/38/80 52/37/80
f 57/87/81 55/86/81 54/56/81 58/38/81
f 61/68/82 62/67/82 64/70/82 59/69/82
f 67/65/83 61/68/83 60/81/83 65/80/83
f 62/144/84 69/126/84 68/85/84 63/84/84
f 69/145/85 67/125/85 66/89/85 70/88/85
f 52/52/86 64/51/86 63/84/86 51/83/86
f 70/88/87 57/87/87 56/82/87 68/85/87
f 49/78/88 60/81/88 59/69/88 50/73/88
f 65/80/89 53/79/89 55/86/89 66/89/89
f 71/62/90 74/61/90 76/60/90 72/59/90
f 79/72/91 81/71/91 80/95/91 77/94/91
f 75/75/92 82/74/92 81/54/92 76/53/92
f 72/59/93 79/72/93 78/99/93 73/98/93
f 85/91/94 87/90/94 86/64/94 83/63/94
f 89/132/95 92/146/95 94/93/95 90/92/95
f 87/147/96 94/135/96 93/77/96 88/76/96
f 84/101/97 91/100/97 90/92/97 85/91/97
f 77/94/98 89/97/98 91/100/98 78/99/98
f 83/63/99 71/62/99 73/98/99 84/101/99
f 82/74/100 93/77/100 92/134/100 80/148/100
f 74/61/101 86/64/101 88/131/101 75/128/101
f 17/141/102 13/109/102 1/102/102 5/139/102
