# Blender v3.1.2 OBJ File: ''
# www.blender.org
mtllib CarGun.mtl
o Cube
v 0.477830 0.482389 -1.318193
v 0.507489 0.524125 -1.275903
v 0.520569 0.481612 -1.274427
v 0.393783 -0.524125 -1.062372
v 0.397131 -0.482389 -1.113873
v 0.440000 -0.481612 -1.070436
v 0.520569 0.481612 1.274427
v 0.507489 0.524125 1.275903
v 0.477830 0.482389 1.318193
v 0.440000 -0.481612 1.070436
v 0.397131 -0.482389 1.113873
v 0.393783 -0.524125 1.062372
v -0.477830 0.482389 -1.318193
v -0.520569 0.481612 -1.274427
v -0.507489 0.524125 -1.275903
v -0.440000 -0.481612 -1.070436
v -0.397131 -0.482389 -1.113873
v -0.393783 -0.524125 -1.062372
v -0.520569 0.481612 1.274427
v -0.477830 0.482389 1.318193
v -0.507489 0.524125 1.275903
v -0.393783 -0.524125 1.062372
v -0.397131 -0.482389 1.113873
v -0.440000 -0.481612 1.070436
v 0.247243 0.566584 0.582896
v 0.299992 0.524125 0.638171
v 0.290433 0.566195 0.540076
v -0.247054 0.566584 0.582896
v -0.290215 0.566231 0.540072
v -0.299992 0.524125 0.638171
v 0.290433 0.566195 -0.566093
v 0.299992 0.524125 -0.638171
v 0.245971 0.557705 -0.613354
v -0.290215 0.566231 -0.566104
v -0.245816 0.557705 -0.613354
v -0.299992 0.524125 -0.638171
v 0.262113 0.654991 0.574265
v 0.305434 0.655380 0.531369
v 0.291385 0.697451 0.507173
v -0.290465 0.697451 0.507173
v -0.304731 0.655344 0.531372
v -0.261455 0.654991 0.574265
v 0.305434 0.655380 -0.635975
v 0.263828 0.663870 -0.696541
v 0.289829 0.697451 -0.696459
v -0.288909 0.697451 -0.696459
v -0.263109 0.663870 -0.696541
v -0.304731 0.655344 -0.635929
v 0.165531 0.739874 0.084770
v 0.160688 0.701982 0.119790
v -0.164140 0.739921 0.084778
v -0.159678 0.697451 0.120529
v 0.165531 0.739874 -0.511061
v 0.201240 0.697451 -0.593368
v 0.122588 0.739397 -0.554353
v -0.164140 0.739921 -0.511068
v -0.121243 0.739397 -0.554353
v -0.200320 0.697451 -0.593368
v 0.153950 1.025284 0.194470
v 0.195913 1.026214 0.150912
v 0.157753 1.068637 0.161823
v -0.152672 1.068637 0.161823
v -0.191303 1.026166 0.150899
v -0.149357 1.025286 0.194470
v 0.195913 1.026214 -0.564157
v 0.153071 1.026691 -0.607627
v 0.157753 1.068637 -0.572743
v -0.191303 1.026166 -0.564147
v -0.152672 1.068637 -0.572743
v -0.148506 1.026691 -0.607627
v 0.030212 0.800010 0.185095
v 0.109737 0.757123 0.132527
v 0.077375 0.842433 0.196005
v -0.028143 0.800010 0.185095
v -0.074834 0.842480 0.196018
v -0.108148 0.757124 0.132527
v 0.047833 0.966078 0.223455
v 0.085993 0.923655 0.214767
v 0.136459 1.008964 0.190700
v -0.043902 0.966078 0.223455
v -0.132046 1.008964 0.190700
v -0.082533 0.923608 0.214758
v 0.030212 0.800010 6.300875
v 0.077375 0.842433 6.300875
v 0.034499 0.842671 6.343536
v -0.028143 0.800010 6.300875
v -0.031999 0.842671 6.343536
v -0.074834 0.842480 6.300875
v 0.047833 0.966078 6.300875
v 0.043067 0.923417 6.343536
v 0.085993 0.923655 6.300875
v -0.043902 0.966078 6.300875
v -0.082533 0.923608 6.300875
v -0.039662 0.923417 6.343536
vt 0.625000 0.750000
vt 0.625000 0.500000
vt 0.625000 0.500000
vt 0.625000 0.750000
vt 0.625000 1.000000
vt 0.625000 1.000000
vt 0.625000 0.250000
vt 0.625000 0.000000
vt 0.625000 0.000000
vt 0.625000 0.250000
vt 0.384954 0.761837
vt 0.615046 0.760514
vt 0.615046 0.989486
vt 0.384954 0.988163
vt 0.385139 0.504666
vt 0.614861 0.504253
vt 0.614861 0.745747
vt 0.385139 0.745334
vt 0.625000 1.000000
vt 0.625000 0.750000
vt 0.625000 0.750446
vt 0.625000 0.999343
vt 0.385139 0.004666
vt 0.614861 0.004253
vt 0.614861 0.245747
vt 0.385139 0.245334
vt 0.625000 0.981645
vt 0.625000 0.768367
vt 0.625000 0.767817
vt 0.625000 0.982195
vt 0.137218 0.504826
vt 0.362782 0.504826
vt 0.362782 0.745174
vt 0.137218 0.745174
vt 0.625000 0.250000
vt 0.625000 0.000000
vt 0.625000 -0.000591
vt 0.625000 0.250000
vt 0.625000 0.239171
vt 0.625000 0.008860
vt 0.625000 0.008613
vt 0.625000 0.239433
vt 0.625000 0.481650
vt 0.625000 0.268343
vt 0.625000 0.267690
vt 0.625000 0.482303
vt 0.625000 0.741140
vt 0.625000 0.510826
vt 0.625000 0.510564
vt 0.625000 0.741387
vt 0.625000 0.000000
vt 0.625000 0.000000
vt 0.625000 0.000000
vt 0.625000 0.000000
vt 0.625000 0.500000
vt 0.625000 0.500000
vt 0.625000 0.999923
vt 0.625000 0.746673
vt 0.625000 0.750000
vt 0.625000 1.000000
vt 0.625000 0.925769
vt 0.625000 0.824231
vt 0.625000 0.824231
vt 0.625000 0.925769
vt 0.651950 0.513008
vt 0.848050 0.513008
vt 0.848050 0.736992
vt 0.651950 0.736992
vt 0.625000 0.750000
vt 0.875000 0.750000
vt 0.875000 0.750000
vt 0.625000 0.750000
vt 0.625000 0.750000
vt 0.625000 0.000000
vt 0.625000 0.000000
vt 0.625000 0.000000
vt 0.625000 0.000000
vt 0.625000 0.734644
vt 0.625000 0.515268
vt 0.625000 0.513842
vt 0.625000 0.736073
vt 0.625000 0.234732
vt 0.625000 0.015356
vt 0.625000 0.013928
vt 0.625000 0.236158
vt 0.625000 0.468205
vt 0.625000 0.281780
vt 0.625000 0.278178
vt 0.625000 0.471808
vt 0.625000 0.930219
vt 0.625000 0.819811
vt 0.625000 0.814051
vt 0.625000 0.935977
vt 0.685237 0.750000
vt 0.814763 0.750000
vt 0.814763 0.750000
vt 0.685237 0.750000
vt 0.625000 0.750000
vt 0.625000 0.750000
vt 0.625000 0.750000
vt 0.625000 0.750000
vt 0.615046 0.489486
vt 0.372938 0.487834
vt 0.384142 0.500000
vt 0.383045 0.500000
vt 0.383031 0.749800
vt 0.384142 0.750000
vt 0.375000 0.762218
vt 0.615046 0.260514
vt 0.384142 0.250000
vt 0.375000 0.245174
vt 0.614235 0.000000
vt 0.625000 0.004816
vt 0.136259 0.750000
vt 0.125000 0.746086
vt 0.625000 0.000137
vt 0.625000 0.010001
vt 0.625000 0.012282
vt 0.625000 0.007492
vt 0.625000 0.000000
vt 0.625000 0.012812
vt 0.625000 0.016339
vt 0.625000 0.500555
vt 0.625000 0.500000
vt 0.625000 0.473050
vt 0.625000 0.236992
vt 0.625000 0.250000
vt 0.625000 1.000000
vt 0.875000 0.750000
vt 0.625000 0.932480
vt 0.625000 1.000000
vt 0.625000 0.810237
vt 0.625000 0.750000
vt 0.625000 0.000000
vt 0.625000 0.000000
vt 0.125000 0.503914
vt 0.136259 0.500000
vt 0.363741 0.500000
vt 0.384954 0.488163
vt 0.384142 0.000000
vt 0.384954 0.261837
vt 0.363741 0.750000
vt 0.625000 0.000000
vt 0.625000 0.013008
vt 0.625000 0.276950
vt 0.625000 0.939763
vt 0.625000 0.000000
vt 0.625000 0.000000
vn 0.0000 1.0000 0.0000
vn 0.0000 -0.2072 0.9783
vn 0.9965 -0.0834 0.0000
vn -0.0050 1.0000 0.0059
vn -0.9965 -0.0834 -0.0000
vn -0.0000 0.0972 0.9953
vn 0.0000 -1.0000 0.0000
vn -0.9870 -0.1608 0.0000
vn 0.0000 -0.6168 -0.7871
vn 0.9861 -0.1659 0.0000
vn 0.0231 -0.2216 0.9749
vn 0.0231 0.9997 -0.0019
vn 0.0031 -0.2106 0.9776
vn 0.0000 -0.2251 0.9743
vn -0.9955 -0.0945 0.0000
vn 0.9944 -0.1055 0.0000
vn 0.0000 -0.1823 -0.9832
vn 0.0000 0.0000 1.0000
vn 0.7037 0.1928 -0.6838
vn 0.5313 -0.6748 -0.5123
vn 0.7037 0.1928 0.6838
vn 0.5313 -0.6748 0.5123
vn -0.7037 0.1928 -0.6838
vn -0.5313 -0.6748 -0.5123
vn -0.7037 0.1928 0.6838
vn -0.5313 -0.6748 0.5123
vn 0.3461 0.8740 0.3411
vn -0.3454 0.8744 0.3409
vn 0.3151 0.8372 -0.4469
vn -0.3145 0.8376 -0.4467
vn 0.5890 0.5416 0.5998
vn -0.5887 0.5434 0.5984
vn 0.6698 -0.5173 -0.5326
vn -0.6714 -0.5145 -0.5334
vn 0.3156 0.8922 -0.3229
vn -0.3145 0.8928 -0.3225
vn 0.6489 0.4206 0.6341
vn -0.6473 0.4263 0.6318
vn 0.6391 0.4484 -0.6249
vn -0.6377 0.4541 -0.6222
vn 0.2674 -0.5079 0.8189
vn -0.2679 -0.5055 0.8202
vn 0.3093 0.0842 0.9472
vn -0.3093 0.0875 0.9469
vn 0.5540 -0.6159 0.5602
vn -0.5567 -0.6120 0.5617
vn 0.5943 0.5345 0.6009
vn -0.5928 0.5392 0.5982
vn -0.6770 -0.7360 0.0000
vn 0.0000 -0.7769 -0.6296
vn 0.6986 -0.2037 -0.6859
vn -0.6986 -0.2037 0.6859
vn 0.6986 -0.2037 0.6859
vn -0.6986 -0.2037 -0.6859
vn 0.0000 0.7118 0.7024
vn 0.9558 0.2941 0.0000
vn 0.0000 -0.7769 0.6296
vn -0.9558 0.2941 -0.0000
vn 0.0000 0.7118 -0.7024
vn 0.6770 -0.7360 0.0000
vn 0.0000 0.7930 0.6092
vn 0.9751 0.2216 0.0000
vn -0.9741 0.2262 0.0000
vn 0.0000 0.5943 -0.8042
vn -0.0000 0.8450 0.5348
vn 0.9433 0.3318 -0.0006
vn -0.9419 0.3359 -0.0006
vn 0.0000 0.0024 -1.0000
vn -0.6657 -0.5244 -0.5309
vn 0.6642 -0.5271 -0.5301
vn 0.7030 -0.0490 0.7095
vn -0.7034 -0.0453 0.7093
vn 0.9385 0.3442 0.0279
vn -0.9416 0.3356 0.0292
vn 0.0000 0.6811 -0.7322
vn 0.0000 0.6016 0.7988
vn 0.7435 0.6688 0.0000
vn -0.7398 0.6729 0.0000
vn 0.0000 0.6394 -0.7689
vn -0.8848 -0.1266 0.4485
vn -0.6980 -0.1941 -0.6893
vn 0.8795 -0.1392 0.4551
vn 0.6965 -0.2016 -0.6887
vn -0.0000 -0.7749 0.6321
vn -0.0000 0.6070 0.7947
vn -0.7083 -0.2220 0.6701
vn 0.7070 -0.2295 0.6689
vn 0.0000 -0.7071 0.7071
vn 0.0000 0.7071 0.7071
vn -0.7039 -0.0668 0.7071
vn 0.7032 -0.0746 0.7071
vn 0.6688 -0.7435 0.0000
vn -0.6729 -0.7398 -0.0000
vn 0.0000 -0.2072 -0.9783
usemtl Material
s off
f 8/1/1 2/2/1 32/3/1 26/4/1
f 21/5/1 8/1/1 26/4/1 30/6/1
f 15/7/1 21/8/1 30/9/1 36/10/1
f 11/11/2 9/12/2 20/13/2 23/14/2
f 2/2/1 15/7/1 36/10/1 32/3/1
f 6/15/3 3/16/3 7/17/3 10/18/3
f 40/19/4 39/20/4 50/21/4 52/22/4
f 24/23/5 19/24/5 14/25/5 16/26/5
f 28/27/6 25/28/6 37/29/6 42/30/6
f 18/31/7 4/32/7 12/33/7 22/34/7
f 46/35/1 40/36/1 52/37/1 58/38/1
f 34/39/8 29/40/8 41/41/8 48/42/8
f 33/43/9 35/44/9 47/45/9 44/46/9
f 27/47/10 31/48/10 43/49/10 38/50/10
f 64/51/11 52/52/11 76/53/11 81/54/11
f 45/55/1 46/35/1 58/38/1 54/56/1
f 39/20/12 45/55/12 54/56/12 50/21/12
f 52/57/13 50/58/13 72/59/13 76/60/13
f 74/61/7 71/62/7 83/63/7 86/64/7
f 67/65/1 69/66/1 62/67/1 61/68/1
f 59/69/14 64/70/14 81/71/14 79/72/14
f 50/73/14 59/69/14 79/72/14 72/59/14
f 82/74/15 75/75/15 88/76/15 93/77/15
f 49/78/16 53/79/16 65/80/16 60/81/16
f 56/82/15 51/83/15 63/84/15 68/85/15
f 55/86/17 57/87/17 70/88/17 66/89/17
f 87/90/18 85/91/18 90/92/18 94/93/18
f 77/94/1 80/95/1 92/96/1 89/97/1
f 73/98/16 78/99/16 91/100/16 84/101/16
f 1/102/19 2/2/19 3/16/19
f 4/103/20 5/104/20 6/105/20
f 7/17/21 8/1/21 9/12/21
f 10/106/22 11/107/22 12/108/22
f 13/109/23 14/25/23 15/7/23
f 16/26/24 17/110/24 18/111/24
f 19/24/25 20/112/25 21/113/25
f 22/34/26 23/114/26 24/115/26
f 25/28/27 26/4/27 27/47/27
f 28/116/28 29/117/28 30/9/28
f 31/48/29 32/3/29 33/43/29
f 34/39/30 35/44/30 36/10/30
f 37/29/31 38/50/31 39/20/31
f 40/118/32 41/119/32 42/120/32
f 43/49/33 44/46/33 45/55/33
f 46/35/34 47/45/34 48/42/34
f 53/79/35 54/56/35 55/86/35
f 56/82/36 57/87/36 58/38/36
f 59/69/37 60/81/37 61/68/37
f 62/121/38 63/122/38 64/51/38
f 65/123/39 66/124/39 67/125/39
f 68/85/40 69/126/40 70/127/40
f 71/62/41 72/59/41 73/98/41
f 74/61/42 75/128/42 76/60/42
f 77/94/43 78/99/43 79/72/43
f 80/95/44 81/71/44 82/129/44
f 83/63/45 84/101/45 85/91/45
f 86/64/46 87/130/46 88/131/46
f 89/132/47 90/133/47 91/100/47
f 92/134/48 93/77/48 94/135/48
f 18/31/49 22/34/49 24/115/49 16/136/49
f 4/32/50 18/31/50 17/137/50 5/138/50
f 3/16/51 6/15/51 5/139/51 1/102/51
f 23/140/52 20/112/52 19/24/52 24/23/52
f 9/12/53 11/11/53 10/18/53 7/17/53
f 13/109/54 17/141/54 16/26/54 14/25/54
f 8/1/55 21/5/55 20/13/55 9/12/55
f 2/2/56 8/1/56 7/17/56 3/16/56
f 22/34/57 12/33/57 11/142/57 23/114/57
f 21/8/58 15/7/58 14/25/58 19/24/58
f 15/7/59 2/2/59 1/102/59 13/109/59
f 12/33/60 4/32/60 6/15/60 10/18/60
f 25/28/61 28/27/61 30/6/61 26/4/61
f 31/48/62 27/47/62 26/4/62 32/3/62
f 29/40/63 34/39/63 36/10/63 30/9/63
f 35/44/64 33/43/64 32/3/64 36/10/64
f 39/20/65 40/19/65 42/30/65 37/29/65
f 45/55/66 39/20/66 38/50/66 43/49/66
f 40/36/67 46/35/67 48/42/67 41/41/67
f 46/35/68 45/55/68 44/46/68 47/45/68
f 34/39/69 48/42/69 47/45/69 35/44/69
f 43/49/70 31/48/70 33/43/70 44/46/70
f 37/29/71 25/28/71 27/47/71 38/50/71
f 28/143/72 42/120/72 41/41/72 29/40/72
f 53/79/73 49/78/73 50/21/73 54/56/73
f 51/83/74 56/82/74 58/38/74 52/37/74
f 57/87/75 55/86/75 54/56/75 58/38/75
f 61/68/76 62/67/76 64/70/76 59/69/76
f 67/65/77 61/68/77 60/81/77 65/80/77
f 62/144/78 69/126/78 68/85/78 63/84/78
f 69/145/79 67/125/79 66/89/79 70/88/79
f 52/52/80 64/51/80 63/84/80 51/83/80
f 70/88/81 57/87/81 56/82/81 68/85/81
f 49/78/82 60/81/82 59/69/82 50/73/82
f 65/80/83 53/79/83 55/86/83 66/89/83
f 71/62/84 74/61/84 76/60/84 72/59/84
f 79/72/85 81/71/85 80/95/85 77/94/85
f 75/75/86 82/74/86 81/54/86 76/53/86
f 72/59/87 79/72/87 78/99/87 73/98/87
f 85/91/88 87/90/88 86/64/88 83/63/88
f 89/132/89 92/146/89 94/93/89 90/92/89
f 87/147/90 94/135/90 93/77/90 88/76/90
f 84/101/91 91/100/91 90/92/91 85/91/91
f 77/94/77 89/97/77 91/100/77 78/99/77
f 83/63/92 71/62/92 73/98/92 84/101/92
f 82/74/78 93/77/78 92/134/78 80/148/78
f 74/61/93 86/64/93 88/131/93 75/128/93
f 17/141/94 13/109/94 1/102/94 5/139/94
