# Blender v3.1.2 OBJ File: ''
# www.blender.org
mtllib Level.mtl
o Plane
v -26.962532 11.435536 -4.980487
v -24.544304 11.435536 14.364661
v -15.472861 11.435536 24.164631
v -0.196616 11.435536 27.285631
v 13.519090 11.435536 24.279215
v 22.714348 11.435536 14.384542
v 24.856312 11.435536 -0.540704
v -25.102787 11.435536 -14.486732
v -0.884141 11.435536 -28.530182
v -15.578848 11.435536 -24.650251
v 22.768772 11.435536 -14.425182
v 13.605673 11.435536 -24.668577
v -28.317715 11.435536 -5.536023
v -25.773556 11.435536 14.816562
v -16.229698 11.435536 25.126884
v -0.157912 11.435536 28.410418
v 14.272067 11.435536 25.247437
v 23.946186 11.435536 14.837478
v 26.199696 11.435536 -0.865029
v -26.361122 11.435536 -15.537325
v -0.881241 11.435536 -30.312115
v -16.341204 11.435536 -26.230129
v 24.003445 11.435536 -15.472569
v 14.363159 11.435536 -26.249411
v -27.210968 11.853717 -5.283848
v -24.792740 11.853717 14.061300
v -15.721295 11.853717 23.861271
v -0.445050 11.853717 26.982269
v 13.270656 11.853717 23.975855
v 22.465912 11.853717 14.081181
v 24.607876 11.853717 -0.844065
v -25.351223 11.853717 -14.790093
v -1.132576 11.853717 -28.833542
v -15.827282 11.853717 -24.953613
v 22.520336 11.853717 -14.728543
v 13.357239 11.853717 -24.971937
v -29.016357 11.853716 -5.584266
v -26.430359 11.853716 15.103001
v -16.729563 11.853716 25.582869
v -0.393488 11.853716 28.920395
v 14.273780 11.853716 25.705400
v 24.106979 11.853716 15.124260
v 26.397549 11.853716 -0.836463
v -27.027592 11.853716 -15.750031
v -1.128712 11.853716 -30.767780
v -16.842901 11.853716 -26.618670
v 24.165180 11.853716 -15.684211
v 14.366369 11.853716 -26.638268
v -30.620228 17.390200 -5.851152
v -27.885185 17.390200 16.028427
v -17.625286 17.390200 27.112301
v -0.347682 17.390200 30.642183
v 15.164935 17.390200 27.241894
v 25.564869 17.390200 16.050911
v 27.987453 17.390200 -0.829709
v -28.516838 17.390200 -16.602821
v -1.125280 17.390200 -32.486118
v -17.745155 17.390200 -28.097874
v 25.626427 17.390200 -16.533205
v 15.262860 17.390200 -28.118601
v -31.707928 17.390200 -6.032146
v -28.871803 17.390200 16.656019
v -18.232735 17.390200 28.149511
v -0.316617 17.390200 31.809847
v 15.769286 17.390200 28.283897
v 26.553566 17.390200 16.679335
v 29.065681 17.390200 -0.825128
v -29.526798 17.390200 -17.181154
v -1.122953 17.390200 -33.651440
v -18.357037 17.390200 -29.101023
v 26.617393 17.390200 -17.108967
v 15.870831 17.390200 -29.122515
vt 0.000000 0.000000
vt 0.000000 0.000000
vt 0.000000 0.000000
vt 0.000000 0.000000
vt 0.000000 0.000000
vt 0.000000 0.000000
vt 0.000000 0.000000
vt 0.000000 0.000000
vt 0.000000 0.000000
vt 0.000000 0.000000
vt 0.000000 0.000000
vt 0.000000 0.000000
vt 0.000000 0.000000
vt 0.000000 0.000000
vt 0.000000 0.000000
vt 0.000000 0.000000
vt 0.000000 0.000000
vt 0.000000 0.000000
vt 0.000000 0.000000
vt 0.000000 0.000000
vt 0.000000 0.000000
vt 0.000000 0.000000
vt 0.000000 0.000000
vt 0.000000 0.000000
vt 0.000000 0.000000
vt 0.000000 0.000000
vt 0.000000 0.000000
vt 0.000000 0.000000
vt 0.000000 0.000000
vt 0.000000 0.000000
vt 0.000000 0.000000
vt 0.000000 0.000000
vt 0.000000 0.000000
vt 0.000000 0.000000
vt 0.000000 0.000000
vt 0.000000 0.000000
vt 0.000000 0.000000
vt 0.000000 0.000000
vt 0.000000 0.000000
vt 0.000000 0.000000
vt 0.000000 0.000000
vt 0.000000 0.000000
vt 0.000000 0.000000
vt 0.000000 0.000000
vt 0.000000 0.000000
vt 0.000000 0.000000
vt 0.000000 0.000000
vt 0.000000 0.000000
vt 0.000000 0.000000
vt 0.000000 0.000000
vt 0.000000 0.000000
vt 0.000000 0.000000
vt 0.000000 0.000000
vt 0.000000 0.000000
vt 0.000000 0.000000
vt 0.000000 0.000000
vt 0.000000 0.000000
vt 0.000000 0.000000
vt 0.000000 0.000000
vt 0.000000 0.000000
vt 0.000000 0.000000
vt 0.000000 0.000000
vt 0.000000 0.000000
vt 0.000000 0.000000
vt 0.000000 0.000000
vt 0.000000 0.000000
vt 0.000000 0.000000
vt 0.000000 0.000000
vt 0.000000 0.000000
vt 0.000000 0.000000
vt 0.000000 0.000000
vt 0.000000 0.000000
vn 0.0000 -1.0000 -0.0000
vn 0.0000 1.0000 0.0000
vn 0.6143 0.5397 0.5756
vn 0.1905 -0.4563 0.8692
vn 0.8515 0.5134 -0.1064
vn 0.6662 -0.4484 -0.5959
vn 0.2153 0.5376 0.8153
vn -0.1784 -0.4533 0.8733
vn 0.8928 -0.4300 -0.1342
vn 0.8326 0.5294 0.1629
vn -0.6526 -0.4573 0.6041
vn -0.6511 -0.4516 -0.6101
vn -0.8471 0.5174 -0.1216
vn -0.8972 -0.4271 0.1122
vn 0.1462 -0.7308 0.6668
vn 0.6318 -0.5304 -0.5652
vn -0.5158 -0.8543 0.0645
vn -0.1631 -0.7694 -0.6176
vn 0.5864 -0.5992 0.5450
vn 0.1914 -0.6692 -0.7180
vn -0.3858 -0.8506 0.3571
vn -0.4028 -0.8339 -0.3774
vn 0.8931 -0.4313 0.1282
vn -0.1216 -0.7943 0.5952
vn 0.8992 -0.4162 -0.1352
vn -0.5060 -0.8568 -0.0990
vn 0.2300 -0.4497 -0.8630
vn 0.6149 0.5457 -0.5692
vn 0.6513 -0.4578 0.6052
vn -0.8467 0.5165 0.1273
vn 0.1683 0.5415 -0.8237
vn 0.8933 -0.4308 0.1282
vn -0.6291 0.5363 0.5627
vn -0.1796 0.5447 -0.8192
vn -0.8804 -0.4419 -0.1722
vn -0.2171 0.5377 0.8147
vn -0.6136 0.5463 -0.5702
vn -0.2280 -0.4496 -0.8636
usemtl None
s off
f 1/1/1 8/2/1 10/3/1 9/4/1 12/5/1 11/6/1 7/7/1 6/8/1 5/9/1 4/10/1 3/11/1 2/12/1
f 1/1/1 13/13/1 20/14/1 8/2/1
f 5/9/1 17/15/1 16/16/1 4/10/1
f 12/5/1 24/17/1 23/18/1 11/6/1
f 2/12/1 14/19/1 13/13/1 1/1/1
f 10/3/1 22/20/1 21/21/1 9/4/1
f 6/8/1 18/22/1 17/15/1 5/9/1
f 9/4/1 21/21/1 24/17/1 12/5/1
f 3/11/1 15/23/1 14/19/1 2/12/1
f 8/2/1 20/14/1 22/20/1 10/3/1
f 7/7/1 19/24/1 18/22/1 6/8/1
f 4/10/1 16/16/1 15/23/1 3/11/1
f 11/6/1 23/18/1 19/24/1 7/7/1
f 25/25/2 26/26/2 27/27/2 28/28/2 29/29/2 30/30/2 31/31/2 35/32/2 36/33/2 33/34/2 34/35/2 32/36/2
f 32/36/3 34/35/3 58/37/3 56/38/3
f 40/39/4 41/40/4 65/41/4 64/42/4
f 26/26/5 25/25/5 49/43/5 50/44/5
f 47/45/6 48/46/6 72/47/6 71/48/6
f 34/35/7 33/34/7 57/49/7 58/37/7
f 39/50/8 40/39/8 64/42/8 63/51/8
f 43/52/9 47/45/9 71/48/9 67/53/9
f 25/25/10 32/36/10 56/38/10 49/43/10
f 38/54/11 39/50/11 63/51/11 62/55/11
f 46/56/12 44/57/12 68/58/12 70/59/12
f 31/31/13 30/30/13 54/60/13 55/61/13
f 37/62/14 38/54/14 62/55/14 61/63/14
f 16/16/15 17/15/15 41/40/15 40/39/15
f 23/18/16 24/17/16 48/46/16 47/45/16
f 13/13/17 14/19/17 38/54/17 37/62/17
f 21/21/18 22/20/18 46/56/18 45/64/18
f 17/15/19 18/22/19 42/65/19 41/40/19
f 24/17/20 21/21/20 45/64/20 48/46/20
f 14/19/21 15/23/21 39/50/21 38/54/21
f 22/20/22 20/14/22 44/57/22 46/56/22
f 18/22/23 19/24/23 43/52/23 42/65/23
f 15/23/24 16/16/24 40/39/24 39/50/24
f 19/24/25 23/18/25 47/45/25 43/52/25
f 20/14/26 13/13/26 37/62/26 44/57/26
f 49/43/2 56/38/2 68/58/2 61/63/2
f 53/66/2 52/67/2 64/42/2 65/41/2
f 60/68/2 59/69/2 71/48/2 72/47/2
f 50/44/2 49/43/2 61/63/2 62/55/2
f 58/37/2 57/49/2 69/70/2 70/59/2
f 54/60/2 53/66/2 65/41/2 66/71/2
f 57/49/2 60/68/2 72/47/2 69/70/2
f 51/72/2 50/44/2 62/55/2 63/51/2
f 56/38/2 58/37/2 70/59/2 68/58/2
f 55/61/2 54/60/2 66/71/2 67/53/2
f 52/67/2 51/72/2 63/51/2 64/42/2
f 59/69/2 55/61/2 67/53/2 71/48/2
f 48/46/27 45/64/27 69/70/27 72/47/27
f 27/27/28 26/26/28 50/44/28 51/72/28
f 41/40/29 42/65/29 66/71/29 65/41/29
f 35/32/30 31/31/30 55/61/30 59/69/30
f 28/28/31 27/27/31 51/72/31 52/67/31
f 42/65/32 43/52/32 67/53/32 66/71/32
f 36/33/33 35/32/33 59/69/33 60/68/33
f 29/29/34 28/28/34 52/67/34 53/66/34
f 44/57/35 37/62/35 61/63/35 68/58/35
f 33/34/36 36/33/36 60/68/36 57/49/36
f 30/30/37 29/29/37 53/66/37 54/60/37
f 45/64/38 46/56/38 70/59/38 69/70/38
